{
  "extensionsUsed": [
    "KHR_materials_transmission",
    "KHR_materials_clearcoat",
    "KHR_materials_ior",
    "KHR_materials_specular",
    "KHR_materials_emissive_strength",
    "KHR_texture_transform"
  ],
  "accessors": [
    {
      "bufferView": 0,
      "componentType": 5126,
      "count": 258,
      "type": "VEC3",
      "max": [
        -683.18207,
        94.737175,
        -1498.4624
      ],
      "min": [
        -695.374,
        94.37859,
        -1510.6544
      ]
    },
    {
      "bufferView": 1,
      "componentType": 5125,
      "count": 756,
      "type": "SCALAR",
      "max": [
        257.0
      ],
      "min": [
        0.0
      ]
    },
    {
      "bufferView": 2,
      "componentType": 5126,
      "count": 258,
      "type": "VEC3",
      "max": [
        1.0,
        1.0,
        1.0
      ],
      "min": [
        -1.0,
        -1.0,
        -1.0
      ]
    },
    {
      "bufferView": 3,
      "componentType": 5126,
      "count": 258,
      "type": "VEC2",
      "max": [
        1.0,
        1.0
      ],
      "min": [
        0.0,
        0.0
      ]
    },
    {
      "bufferView": 4,
      "componentType": 5126,
      "count": 258,
      "type": "VEC3",
      "max": [
        -665.25256,
        94.737175,
        -1498.4624
      ],
      "min": [
        -677.4446,
        94.37859,
        -1510.6544
      ]
    },
    {
      "bufferView": 5,
      "componentType": 5125,
      "count": 756,
      "type": "SCALAR",
      "max": [
        257.0
      ],
      "min": [
        0.0
      ]
    },
    {
      "bufferView": 6,
      "componentType": 5126,
      "count": 258,
      "type": "VEC3",
      "max": [
        1.0,
        1.0,
        1.0
      ],
      "min": [
        -1.0,
        -1.0,
        -1.0
      ]
    },
    {
      "bufferView": 7,
      "componentType": 5126,
      "count": 258,
      "type": "VEC2",
      "max": [
        1.0,
        1.0
      ],
      "min": [
        0.0,
        0.0
      ]
    }
  ],
  "asset": {
    "version": "2.0"
  },
  "buffers": [
    {
      "uri": "data:application/octet-stream;base64,",
      "byteLength": 3096
    },
    {
      "uri": "data:application/octet-stream;base64,",
      "byteLength": 3024
    },
    {
      "uri": "data:application/octet-stream;base64,",
      "byteLength": 3096
    },
    {
      "uri": "data:application/octet-stream;base64,",
      "byteLength": 2064
    },
    {
      "uri": "data:application/octet-stream;base64,",
      "byteLength": 3096
    },
    {
      "uri": "data:application/octet-stream;base64,",
      "byteLength": 3024
    },
    {
      "uri": "data:application/octet-stream;base64,",
      "byteLength": 3096
    },
    {
      "uri": "data:application/octet-stream;base64,",
      "byteLength": 2064
    }
  ],
  "bufferViews": [
    {
      "buffer": 0,
      "byteLength": 3096,
      "target": 34962
    },
    {
      "buffer": 1,
      "byteLength": 3024,
      "target": 34963
    },
    {
      "buffer": 2,
      "byteLength": 3096,
      "target": 34962
    },
    {
      "buffer": 3,
      "byteLength": 2064,
      "target": 34962
    },
    {
      "buffer": 4,
      "byteLength": 3096,
      "target": 34962
    },
    {
      "buffer": 5,
      "byteLength": 3024,
      "target": 34963
    },
    {
      "buffer": 6,
      "byteLength": 3096,
      "target": 34962
    },
    {
      "buffer": 7,
      "byteLength": 2064,
      "target": 34962
    }
  ],
  "materials": [
    {
      "pbrMetallicRoughness": {
        "baseColorFactor": [
          0.9764706,
          0.5058824,
          0.24313726,
          1.0
        ]
      }
    }
  ],
  "meshes": [
    {
      "primitives": [
        {
          "attributes": {
            "POSITION": 0,
            "NORMAL": 2,
            "TEXCOORD_0": 3
          },
          "indices": 1,
          "material": 0
        }
      ]
    },
    {
      "primitives": [
        {
          "attributes": {
            "POSITION": 4,
            "NORMAL": 6,
            "TEXCOORD_0": 7
          },
          "indices": 5,
          "material": 0
        }
      ]
    }
  ],
  "nodes": [
    {
      "mesh": 0
    },
    {
      "mesh": 1
    }
  ],
  "samplers": [
    {
      "magFilter": 9729,
      "minFilter": 9729
    }
  ],
  "scene": 0,
  "scenes": [
    {
      "nodes": [
        0,
        1
      ],
      "extensions": {}
    }
  ],
  "extensions": {}
}