{
  "extensionsUsed": [
    "KHR_materials_transmission",
    "KHR_materials_clearcoat",
    "KHR_materials_ior",
    "KHR_materials_specular",
    "KHR_materials_emissive_strength",
    "KHR_texture_transform"
  ],
  "accessors": [
    {
      "bufferView": 0,
      "componentType": 5126,
      "count": 24,
      "type": "VEC3",
      "max": [
        2273.5867,
        81.73161,
        -5979.897
      ],
      "min": [
        2267.8274,
        69.39554,
        -6004.867
      ]
    },
    {
      "bufferView": 1,
      "componentType": 5125,
      "count": 36,
      "type": "SCALAR",
      "max": [
        23.0
      ],
      "min": [
        0.0
      ]
    },
    {
      "bufferView": 2,
      "componentType": 5126,
      "count": 24,
      "type": "VEC3",
      "max": [
        0.9935945,
        0.8983564,
        0.9418699
      ],
      "min": [
        -0.9935945,
        -0.8983564,
        -0.9418699
      ]
    },
    {
      "bufferView": 3,
      "componentType": 5126,
      "count": 24,
      "type": "VEC2",
      "max": [
        1.0,
        1.0
      ],
      "min": [
        0.0,
        0.0
      ]
    },
    {
      "bufferView": 4,
      "componentType": 5126,
      "count": 24,
      "type": "VEC3",
      "max": [
        2267.1536,
        86.4758,
        -5968.633
      ],
      "min": [
        2250.2612,
        81.9436,
        -5982.9155
      ]
    },
    {
      "bufferView": 5,
      "componentType": 5125,
      "count": 36,
      "type": "SCALAR",
      "max": [
        23.0
      ],
      "min": [
        0.0
      ]
    },
    {
      "bufferView": 6,
      "componentType": 5126,
      "count": 24,
      "type": "VEC3",
      "max": [
        0.86164856,
        0.9596364,
        0.98775524
      ],
      "min": [
        -0.86164856,
        -0.9596364,
        -0.98775524
      ]
    },
    {
      "bufferView": 7,
      "componentType": 5126,
      "count": 24,
      "type": "VEC2",
      "max": [
        1.0,
        1.0
      ],
      "min": [
        0.0,
        0.0
      ]
    },
    {
      "bufferView": 8,
      "componentType": 5126,
      "count": 24,
      "type": "VEC3",
      "max": [
        2287.8396,
        81.49964,
        -5927.36
      ],
      "min": [
        2284.113,
        73.3622,
        -5940.7974
      ]
    },
    {
      "bufferView": 9,
      "componentType": 5125,
      "count": 36,
      "type": "SCALAR",
      "max": [
        23.0
      ],
      "min": [
        0.0
      ]
    },
    {
      "bufferView": 10,
      "componentType": 5126,
      "count": 24,
      "type": "VEC3",
      "max": [
        1.0,
        0.8581023,
        0.906103
      ],
      "min": [
        -1.0,
        -0.8581023,
        -0.906103
      ]
    },
    {
      "bufferView": 11,
      "componentType": 5126,
      "count": 24,
      "type": "VEC2",
      "max": [
        1.0,
        1.0
      ],
      "min": [
        0.0,
        0.0
      ]
    },
    {
      "bufferView": 12,
      "componentType": 5126,
      "count": 24,
      "type": "VEC3",
      "max": [
        2269.91,
        87.316376,
        -5937.386
      ],
      "min": [
        2266.016,
        81.429405,
        -5948.5293
      ]
    },
    {
      "bufferView": 13,
      "componentType": 5125,
      "count": 36,
      "type": "SCALAR",
      "max": [
        23.0
      ],
      "min": [
        0.0
      ]
    },
    {
      "bufferView": 14,
      "componentType": 5126,
      "count": 24,
      "type": "VEC3",
      "max": [
        1.0,
        0.88751745,
        0.9534188
      ],
      "min": [
        -1.0,
        -0.88751745,
        -0.9534188
      ]
    },
    {
      "bufferView": 15,
      "componentType": 5126,
      "count": 24,
      "type": "VEC2",
      "max": [
        1.0,
        1.0
      ],
      "min": [
        0.0,
        0.0
      ]
    },
    {
      "bufferView": 16,
      "componentType": 5126,
      "count": 24,
      "type": "VEC3",
      "max": [
        2288.721,
        82.132355,
        -5939.76
      ],
      "min": [
        2262.0737,
        81.28557,
        -5981.4204
      ]
    },
    {
      "bufferView": 17,
      "componentType": 5125,
      "count": 36,
      "type": "SCALAR",
      "max": [
        23.0
      ],
      "min": [
        0.0
      ]
    },
    {
      "bufferView": 18,
      "componentType": 5126,
      "count": 24,
      "type": "VEC3",
      "max": [
        1.0,
        1.0,
        1.0
      ],
      "min": [
        -1.0,
        -1.0,
        -1.0
      ]
    },
    {
      "bufferView": 19,
      "componentType": 5126,
      "count": 24,
      "type": "VEC2",
      "max": [
        1.0,
        1.0
      ],
      "min": [
        0.0,
        0.0
      ]
    },
    {
      "bufferView": 20,
      "componentType": 5126,
      "count": 24,
      "type": "VEC3",
      "max": [
        2255.1855,
        92.12997,
        -5943.4814
      ],
      "min": [
        2251.2917,
        86.243,
        -5954.6245
      ]
    },
    {
      "bufferView": 21,
      "componentType": 5125,
      "count": 36,
      "type": "SCALAR",
      "max": [
        23.0
      ],
      "min": [
        0.0
      ]
    },
    {
      "bufferView": 22,
      "componentType": 5126,
      "count": 24,
      "type": "VEC3",
      "max": [
        1.0,
        0.88751745,
        0.9534188
      ],
      "min": [
        -1.0,
        -0.88751745,
        -0.9534188
      ]
    },
    {
      "bufferView": 23,
      "componentType": 5126,
      "count": 24,
      "type": "VEC2",
      "max": [
        1.0,
        1.0
      ],
      "min": [
        0.0,
        0.0
      ]
    },
    {
      "bufferView": 24,
      "componentType": 5126,
      "count": 24,
      "type": "VEC3",
      "max": [
        2266.1772,
        92.728264,
        -5922.927
      ],
      "min": [
        2255.0342,
        86.841286,
        -5926.8203
      ]
    },
    {
      "bufferView": 25,
      "componentType": 5125,
      "count": 36,
      "type": "SCALAR",
      "max": [
        23.0
      ],
      "min": [
        0.0
      ]
    },
    {
      "bufferView": 26,
      "componentType": 5126,
      "count": 24,
      "type": "VEC3",
      "max": [
        0.9534188,
        0.88751745,
        1.0
      ],
      "min": [
        -0.9534188,
        -0.88751745,
        -1.0
      ]
    },
    {
      "bufferView": 27,
      "componentType": 5126,
      "count": 24,
      "type": "VEC2",
      "max": [
        1.0,
        1.0
      ],
      "min": [
        0.0,
        0.0
      ]
    },
    {
      "bufferView": 28,
      "componentType": 5126,
      "count": 153,
      "type": "VEC3",
      "max": [
        2280.2764,
        87.288864,
        -5919.7524
      ],
      "min": [
        2260.6526,
        86.44366,
        -5938.235
      ]
    },
    {
      "bufferView": 29,
      "componentType": 5125,
      "count": 453,
      "type": "SCALAR",
      "max": [
        152.0
      ],
      "min": [
        0.0
      ]
    },
    {
      "bufferView": 30,
      "componentType": 5126,
      "count": 153,
      "type": "VEC3",
      "max": [
        0.9996714,
        7.551554E-16,
        0.99994445
      ],
      "min": [
        -0.9997162,
        -7.551215E-16,
        -0.99994445
      ]
    },
    {
      "bufferView": 31,
      "componentType": 5126,
      "count": 153,
      "type": "VEC2",
      "max": [
        0.45669782,
        0.99853516
      ],
      "min": [
        0.3671137,
        0.0
      ]
    },
    {
      "bufferView": 32,
      "componentType": 5126,
      "count": 64,
      "type": "VEC3",
      "max": [
        2280.2764,
        86.44366,
        -5919.7524
      ],
      "min": [
        2260.653,
        86.44366,
        -5938.235
      ]
    },
    {
      "bufferView": 33,
      "componentType": 5125,
      "count": 186,
      "type": "SCALAR",
      "max": [
        63.0
      ],
      "min": [
        0.0
      ]
    },
    {
      "bufferView": 34,
      "componentType": 5126,
      "count": 64,
      "type": "VEC3",
      "max": [
        7.757721E-16,
        -1.0,
        2.16478E-17
      ],
      "min": [
        7.6103507E-16,
        -1.0,
        -5.772746E-17
      ]
    },
    {
      "bufferView": 35,
      "componentType": 5126,
      "count": 64,
      "type": "VEC2",
      "max": [
        0.76710975,
        0.3264146
      ],
      "min": [
        0.45816267,
        0.0
      ]
    },
    {
      "bufferView": 36,
      "componentType": 5126,
      "count": 112,
      "type": "VEC3",
      "max": [
        2280.2734,
        87.288864,
        -5919.753
      ],
      "min": [
        2260.6526,
        87.26783,
        -5938.2344
      ]
    },
    {
      "bufferView": 37,
      "componentType": 5125,
      "count": 405,
      "type": "SCALAR",
      "max": [
        111.0
      ],
      "min": [
        0.0
      ]
    },
    {
      "bufferView": 38,
      "componentType": 5126,
      "count": 112,
      "type": "VEC3",
      "max": [
        0.00026434046,
        0.99999976,
        0.0018971632
      ],
      "min": [
        -0.00046343112,
        0.99999815,
        0.00057987974
      ]
    },
    {
      "bufferView": 39,
      "componentType": 5126,
      "count": 112,
      "type": "VEC2",
      "max": [
        0.36564887,
        0.38180476
      ],
      "min": [
        0.0,
        0.0
      ]
    },
    {
      "bufferView": 40,
      "componentType": 5126,
      "count": 24,
      "type": "VEC3",
      "max": [
        2255.7634,
        92.72137,
        -5915.7695
      ],
      "min": [
        2239.1997,
        91.87458,
        -5945.3604
      ]
    },
    {
      "bufferView": 41,
      "componentType": 5125,
      "count": 36,
      "type": "SCALAR",
      "max": [
        23.0
      ],
      "min": [
        0.0
      ]
    },
    {
      "bufferView": 42,
      "componentType": 5126,
      "count": 24,
      "type": "VEC3",
      "max": [
        1.0,
        1.0,
        1.0
      ],
      "min": [
        -1.0,
        -1.0,
        -1.0
      ]
    },
    {
      "bufferView": 43,
      "componentType": 5126,
      "count": 24,
      "type": "VEC2",
      "max": [
        1.0,
        1.0
      ],
      "min": [
        0.0,
        0.0
      ]
    },
    {
      "bufferView": 44,
      "componentType": 5126,
      "count": 24,
      "type": "VEC3",
      "max": [
        2255.6426,
        86.46811,
        -5951.963
      ],
      "min": [
        2241.5005,
        85.62132,
        -6004.4346
      ]
    },
    {
      "bufferView": 45,
      "componentType": 5125,
      "count": 36,
      "type": "SCALAR",
      "max": [
        23.0
      ],
      "min": [
        0.0
      ]
    },
    {
      "bufferView": 46,
      "componentType": 5126,
      "count": 24,
      "type": "VEC3",
      "max": [
        1.0,
        1.0,
        1.0
      ],
      "min": [
        -1.0,
        -1.0,
        -1.0
      ]
    },
    {
      "bufferView": 47,
      "componentType": 5126,
      "count": 24,
      "type": "VEC2",
      "max": [
        1.0,
        1.0
      ],
      "min": [
        0.0,
        0.0
      ]
    }
  ],
  "asset": {
    "version": "2.0"
  },
  "buffers": [
    {
      "uri": "data:application/octet-stream;base64,",
      "byteLength": 288
    },
    {
      "uri": "data:application/octet-stream;base64,",
      "byteLength": 144
    },
    {
      "uri": "data:application/octet-stream;base64,",
      "byteLength": 288
    },
    {
      "uri": "data:application/octet-stream;base64,",
      "byteLength": 192
    },
    {
      "uri": "data:application/octet-stream;base64,",
      "byteLength": 288
    },
    {
      "uri": "data:application/octet-stream;base64,",
      "byteLength": 144
    },
    {
      "uri": "data:application/octet-stream;base64,",
      "byteLength": 288
    },
    {
      "uri": "data:application/octet-stream;base64,",
      "byteLength": 192
    },
    {
      "uri": "data:application/octet-stream;base64,",
      "byteLength": 288
    },
    {
      "uri": "data:application/octet-stream;base64,",
      "byteLength": 144
    },
    {
      "uri": "data:application/octet-stream;base64,",
      "byteLength": 288
    },
    {
      "uri": "data:application/octet-stream;base64,",
      "byteLength": 192
    },
    {
      "uri": "data:application/octet-stream;base64,",
      "byteLength": 288
    },
    {
      "uri": "data:application/octet-stream;base64,",
      "byteLength": 144
    },
    {
      "uri": "data:application/octet-stream;base64,",
      "byteLength": 288
    },
    {
      "uri": "data:application/octet-stream;base64,",
      "byteLength": 192
    },
    {
      "uri": "data:application/octet-stream;base64,",
      "byteLength": 288
    },
    {
      "uri": "data:application/octet-stream;base64,",
      "byteLength": 144
    },
    {
      "uri": "data:application/octet-stream;base64,",
      "byteLength": 288
    },
    {
      "uri": "data:application/octet-stream;base64,",
      "byteLength": 192
    },
    {
      "uri": "data:application/octet-stream;base64,",
      "byteLength": 288
    },
    {
      "uri": "data:application/octet-stream;base64,",
      "byteLength": 144
    },
    {
      "uri": "data:application/octet-stream;base64,",
      "byteLength": 288
    },
    {
      "uri": "data:application/octet-stream;base64,",
      "byteLength": 192
    },
    {
      "uri": "data:application/octet-stream;base64,",
      "byteLength": 288
    },
    {
      "uri": "data:application/octet-stream;base64,",
      "byteLength": 144
    },
    {
      "uri": "data:application/octet-stream;base64,",
      "byteLength": 288
    },
    {
      "uri": "data:application/octet-stream;base64,",
      "byteLength": 192
    },
    {
      "uri": "data:application/octet-stream;base64,",
      "byteLength": 1836
    },
    {
      "uri": "data:application/octet-stream;base64,",
      "byteLength": 1812
    },
    {
      "uri": "data:application/octet-stream;base64,",
      "byteLength": 1836
    },
    {
      "uri": "data:application/octet-stream;base64,",
      "byteLength": 1224
    },
    {
      "uri": "data:application/octet-stream;base64,",
      "byteLength": 768
    },
    {
      "uri": "data:application/octet-stream;base64,",
      "byteLength": 744
    },
    {
      "uri": "data:application/octet-stream;base64,",
      "byteLength": 768
    },
    {
      "uri": "data:application/octet-stream;base64,",
      "byteLength": 512
    },
    {
      "uri": "data:application/octet-stream;base64,",
      "byteLength": 1344
    },
    {
      "uri": "data:application/octet-stream;base64,",
      "byteLength": 1620
    },
    {
      "uri": "data:application/octet-stream;base64,",
      "byteLength": 1344
    },
    {
      "uri": "data:application/octet-stream;base64,",
      "byteLength": 896
    },
    {
      "uri": "data:application/octet-stream;base64,",
      "byteLength": 288
    },
    {
      "uri": "data:application/octet-stream;base64,",
      "byteLength": 144
    },
    {
      "uri": "data:application/octet-stream;base64,",
      "byteLength": 288
    },
    {
      "uri": "data:application/octet-stream;base64,",
      "byteLength": 192
    },
    {
      "uri": "data:application/octet-stream;base64,",
      "byteLength": 288
    },
    {
      "uri": "data:application/octet-stream;base64,",
      "byteLength": 144
    },
    {
      "uri": "data:application/octet-stream;base64,",
      "byteLength": 288
    },
    {
      "uri": "data:application/octet-stream;base64,",
      "byteLength": 192
    }
  ],
  "bufferViews": [
    {
      "buffer": 0,
      "byteLength": 288,
      "target": 34962
    },
    {
      "buffer": 1,
      "byteLength": 144,
      "target": 34963
    },
    {
      "buffer": 2,
      "byteLength": 288,
      "target": 34962
    },
    {
      "buffer": 3,
      "byteLength": 192,
      "target": 34962
    },
    {
      "buffer": 4,
      "byteLength": 288,
      "target": 34962
    },
    {
      "buffer": 5,
      "byteLength": 144,
      "target": 34963
    },
    {
      "buffer": 6,
      "byteLength": 288,
      "target": 34962
    },
    {
      "buffer": 7,
      "byteLength": 192,
      "target": 34962
    },
    {
      "buffer": 8,
      "byteLength": 288,
      "target": 34962
    },
    {
      "buffer": 9,
      "byteLength": 144,
      "target": 34963
    },
    {
      "buffer": 10,
      "byteLength": 288,
      "target": 34962
    },
    {
      "buffer": 11,
      "byteLength": 192,
      "target": 34962
    },
    {
      "buffer": 12,
      "byteLength": 288,
      "target": 34962
    },
    {
      "buffer": 13,
      "byteLength": 144,
      "target": 34963
    },
    {
      "buffer": 14,
      "byteLength": 288,
      "target": 34962
    },
    {
      "buffer": 15,
      "byteLength": 192,
      "target": 34962
    },
    {
      "buffer": 16,
      "byteLength": 288,
      "target": 34962
    },
    {
      "buffer": 17,
      "byteLength": 144,
      "target": 34963
    },
    {
      "buffer": 18,
      "byteLength": 288,
      "target": 34962
    },
    {
      "buffer": 19,
      "byteLength": 192,
      "target": 34962
    },
    {
      "buffer": 20,
      "byteLength": 288,
      "target": 34962
    },
    {
      "buffer": 21,
      "byteLength": 144,
      "target": 34963
    },
    {
      "buffer": 22,
      "byteLength": 288,
      "target": 34962
    },
    {
      "buffer": 23,
      "byteLength": 192,
      "target": 34962
    },
    {
      "buffer": 24,
      "byteLength": 288,
      "target": 34962
    },
    {
      "buffer": 25,
      "byteLength": 144,
      "target": 34963
    },
    {
      "buffer": 26,
      "byteLength": 288,
      "target": 34962
    },
    {
      "buffer": 27,
      "byteLength": 192,
      "target": 34962
    },
    {
      "buffer": 28,
      "byteLength": 1836,
      "target": 34962
    },
    {
      "buffer": 29,
      "byteLength": 1812,
      "target": 34963
    },
    {
      "buffer": 30,
      "byteLength": 1836,
      "target": 34962
    },
    {
      "buffer": 31,
      "byteLength": 1224,
      "target": 34962
    },
    {
      "buffer": 32,
      "byteLength": 768,
      "target": 34962
    },
    {
      "buffer": 33,
      "byteLength": 744,
      "target": 34963
    },
    {
      "buffer": 34,
      "byteLength": 768,
      "target": 34962
    },
    {
      "buffer": 35,
      "byteLength": 512,
      "target": 34962
    },
    {
      "buffer": 36,
      "byteLength": 1344,
      "target": 34962
    },
    {
      "buffer": 37,
      "byteLength": 1620,
      "target": 34963
    },
    {
      "buffer": 38,
      "byteLength": 1344,
      "target": 34962
    },
    {
      "buffer": 39,
      "byteLength": 896,
      "target": 34962
    },
    {
      "buffer": 40,
      "byteLength": 288,
      "target": 34962
    },
    {
      "buffer": 41,
      "byteLength": 144,
      "target": 34963
    },
    {
      "buffer": 42,
      "byteLength": 288,
      "target": 34962
    },
    {
      "buffer": 43,
      "byteLength": 192,
      "target": 34962
    },
    {
      "buffer": 44,
      "byteLength": 288,
      "target": 34962
    },
    {
      "buffer": 45,
      "byteLength": 144,
      "target": 34963
    },
    {
      "buffer": 46,
      "byteLength": 288,
      "target": 34962
    },
    {
      "buffer": 47,
      "byteLength": 192,
      "target": 34962
    }
  ],
  "meshes": [
    {
      "primitives": [
        {
          "attributes": {
            "POSITION": 0,
            "NORMAL": 2,
            "TEXCOORD_0": 3
          },
          "indices": 1
        }
      ]
    },
    {
      "primitives": [
        {
          "attributes": {
            "POSITION": 4,
            "NORMAL": 6,
            "TEXCOORD_0": 7
          },
          "indices": 5
        }
      ]
    },
    {
      "primitives": [
        {
          "attributes": {
            "POSITION": 8,
            "NORMAL": 10,
            "TEXCOORD_0": 11
          },
          "indices": 9
        }
      ]
    },
    {
      "primitives": [
        {
          "attributes": {
            "POSITION": 12,
            "NORMAL": 14,
            "TEXCOORD_0": 15
          },
          "indices": 13
        }
      ]
    },
    {
      "primitives": [
        {
          "attributes": {
            "POSITION": 16,
            "NORMAL": 18,
            "TEXCOORD_0": 19
          },
          "indices": 17
        }
      ]
    },
    {
      "primitives": [
        {
          "attributes": {
            "POSITION": 20,
            "NORMAL": 22,
            "TEXCOORD_0": 23
          },
          "indices": 21
        }
      ]
    },
    {
      "primitives": [
        {
          "attributes": {
            "POSITION": 24,
            "NORMAL": 26,
            "TEXCOORD_0": 27
          },
          "indices": 25
        }
      ]
    },
    {
      "primitives": [
        {
          "attributes": {
            "POSITION": 28,
            "NORMAL": 30,
            "TEXCOORD_0": 31
          },
          "indices": 29
        },
        {
          "attributes": {
            "POSITION": 32,
            "NORMAL": 34,
            "TEXCOORD_0": 35
          },
          "indices": 33
        },
        {
          "attributes": {
            "POSITION": 36,
            "NORMAL": 38,
            "TEXCOORD_0": 39
          },
          "indices": 37
        }
      ]
    },
    {
      "primitives": [
        {
          "attributes": {
            "POSITION": 40,
            "NORMAL": 42,
            "TEXCOORD_0": 43
          },
          "indices": 41
        }
      ]
    },
    {
      "primitives": [
        {
          "attributes": {
            "POSITION": 44,
            "NORMAL": 46,
            "TEXCOORD_0": 47
          },
          "indices": 45
        }
      ]
    }
  ],
  "nodes": [
    {
      "mesh": 0
    },
    {
      "mesh": 1
    },
    {
      "mesh": 2
    },
    {
      "mesh": 3
    },
    {
      "mesh": 4
    },
    {
      "mesh": 5
    },
    {
      "mesh": 6
    },
    {
      "mesh": 7
    },
    {
      "mesh": 8
    },
    {
      "mesh": 9
    }
  ],
  "samplers": [
    {
      "magFilter": 9729,
      "minFilter": 9729
    }
  ],
  "scene": 0,
  "scenes": [
    {
      "nodes": [
        0,
        1,
        2,
        3,
        4,
        5,
        6,
        7,
        8,
        9
      ],
      "extensions": {}
    }
  ],
  "extensions": {}
}